<?xml version="1.0" encoding="UTF-8"?>
<svg id="Layer_1" data-name="Layer 1" xmlns="http://www.w3.org/2000/svg" version="1.1" viewBox="0 0 24 24">
  <defs>
    <style>
      .cls-1 {
        fill: #fff;
        stroke-width: 0px;
      }
    </style>
  </defs>
  <path class="cls-1" d="M7,12c0,2.8,2.2,5,5,5s5-2.2,5-5-2.2-5-5-5-5,2.2-5,5ZM12,9c1.7,0,3,1.3,3,3s-1.3,3-3,3-3-1.3-3-3,1.3-3,3-3ZM11,19h2v3h-2v-3ZM11,2h2v3h-2v-3ZM2,11h3v2H2v-2ZM19,11h3v2h-3v-2ZM4.2,18.4l2.1-2.1,1.4,1.4-2.1,2.1-1.4-1.4ZM16.2,6.3l2.1-2.1,1.4,1.4-2.1,2.1-1.4-1.4ZM6.3,7.8l-2.1-2.1,1.4-1.4,2.1,2.1-1.4,1.4ZM19.8,18.4l-1.4,1.4-2.1-2.1,1.4-1.4,2.1,2.1Z"/>
</svg>